<svg version="1.1" viewBox="0.0 0.0 822.8425196850394 540.4173228346457" fill="none" stroke="none" stroke-linecap="square" stroke-miterlimit="10" xmlns:xlink="http://www.w3.org/1999/xlink" xmlns="http://www.w3.org/2000/svg"><clipPath id="p.0"><path d="m0 0l822.8425 0l0 540.4173l-822.8425 0l0 -540.4173z" clip-rule="nonzero"/></clipPath><g clip-path="url(#p.0)"><path fill="#000000" fill-opacity="0.0" d="m0 0l822.8425 0l0 540.4173l-822.8425 0z" fill-rule="evenodd"/><path fill="#0f172a" d="m74.58423 49.704723l0 0c0 -2.4795532E-4 1.9836426E-4 -4.5394897E-4 4.5013428E-4 -4.5394897E-4l54.456245 4.5394897E-4c1.2207031E-4 0 2.2888184E-4 4.9591064E-5 3.2043457E-4 1.335144E-4c7.6293945E-5 8.392334E-5 1.2207031E-4 2.0217896E-4 1.2207031E-4 3.2043457E-4l-4.4250488E-4 441.00742c0 2.746582E-4 -2.1362305E-4 4.5776367E-4 -4.5776367E-4 4.5776367E-4l-54.456238 -4.5776367E-4l0 0c-2.5177002E-4 0 -4.5776367E-4 -1.8310547E-4 -4.5776367E-4 -4.272461E-4z" fill-rule="evenodd"/><path stroke="#0f172a" stroke-width="1.2388451443569553" stroke-linejoin="round" stroke-linecap="butt" d="m74.58423 49.704723l0 0c0 -2.4795532E-4 1.9836426E-4 -4.5394897E-4 4.5013428E-4 -4.5394897E-4l54.456245 4.5394897E-4c1.2207031E-4 0 2.2888184E-4 4.9591064E-5 3.2043457E-4 1.335144E-4c7.6293945E-5 8.392334E-5 1.2207031E-4 2.0217896E-4 1.2207031E-4 3.2043457E-4l-4.4250488E-4 441.00742c0 2.746582E-4 -2.1362305E-4 4.5776367E-4 -4.5776367E-4 4.5776367E-4l-54.456238 -4.5776367E-4l0 0c-2.5177002E-4 0 -4.5776367E-4 -1.8310547E-4 -4.5776367E-4 -4.272461E-4z" fill-rule="evenodd"/><path fill="#0f172a" d="m693.8016 49.704723l0 0c0 -2.4795532E-4 2.4414062E-4 -4.5394897E-4 4.8828125E-4 -4.5394897E-4l54.456238 4.5394897E-4c1.2207031E-4 0 2.4414062E-4 4.9591064E-5 3.0517578E-4 1.335144E-4c1.2207031E-4 8.392334E-5 1.2207031E-4 2.0217896E-4 1.2207031E-4 3.2043457E-4l-4.272461E-4 441.00742c0 2.746582E-4 -1.8310547E-4 4.5776367E-4 -4.8828125E-4 4.5776367E-4l-54.456238 -4.5776367E-4l0 0c-2.4414062E-4 0 -4.272461E-4 -1.8310547E-4 -4.272461E-4 -4.272461E-4z" fill-rule="evenodd"/><path stroke="#0f172a" stroke-width="1.2388451443569553" stroke-linejoin="round" stroke-linecap="butt" d="m693.8016 49.704723l0 0c0 -2.4795532E-4 2.4414062E-4 -4.5394897E-4 4.8828125E-4 -4.5394897E-4l54.456238 4.5394897E-4c1.2207031E-4 0 2.4414062E-4 4.9591064E-5 3.0517578E-4 1.335144E-4c1.2207031E-4 8.392334E-5 1.2207031E-4 2.0217896E-4 1.2207031E-4 3.2043457E-4l-4.272461E-4 441.00742c0 2.746582E-4 -1.8310547E-4 4.5776367E-4 -4.8828125E-4 4.5776367E-4l-54.456238 -4.5776367E-4l0 0c-2.4414062E-4 0 -4.272461E-4 -1.8310547E-4 -4.272461E-4 -4.272461E-4z" fill-rule="evenodd"/><path fill="#0f172a" d="m211.3633 242.21434l0 0c0 -10.236832 8.298599 -18.53543 18.53543 -18.53543l0 0l0 0c4.915909 0 9.630463 1.9528351 13.106537 5.4289093c3.4760742 3.476059 5.4289093 8.190628 5.4289093 13.106522l0 56.063004c0 10.236816 -8.298599 18.53543 -18.535446 18.53543l0 0l0 0c-10.236832 0 -18.53543 -8.2986145 -18.53543 -18.53543z" fill-rule="evenodd"/><path stroke="#0f172a" stroke-width="1.2388451443569553" stroke-linejoin="round" stroke-linecap="butt" d="m211.3633 242.21434l0 0c0 -10.236832 8.298599 -18.53543 18.53543 -18.53543l0 0l0 0c4.915909 0 9.630463 1.9528351 13.106537 5.4289093c3.4760742 3.476059 5.4289093 8.190628 5.4289093 13.106522l0 56.063004c0 10.236816 -8.298599 18.53543 -18.535446 18.53543l0 0l0 0c-10.236832 0 -18.53543 -8.2986145 -18.53543 -18.53543z" fill-rule="evenodd"/><path fill="#0f172a" d="m283.99893 170.25034l0 0c0 -10.236832 8.298584 -18.53543 18.53543 -18.53543l0 0l0 0c4.9158936 0 9.630463 1.9528351 13.106506 5.428894c3.4760742 3.4760742 5.4289246 8.190628 5.4289246 13.106537l0 199.84253c0 10.236816 -8.2986145 18.53543 -18.53543 18.53543l0 0l0 0c-10.236847 0 -18.53543 -8.2986145 -18.53543 -18.53543z" fill-rule="evenodd"/><path stroke="#0f172a" stroke-width="1.2388451443569553" stroke-linejoin="round" stroke-linecap="butt" d="m283.99893 170.25034l0 0c0 -10.236832 8.298584 -18.53543 18.53543 -18.53543l0 0l0 0c4.9158936 0 9.630463 1.9528351 13.106506 5.428894c3.4760742 3.4760742 5.4289246 8.190628 5.4289246 13.106537l0 199.84253c0 10.236816 -8.2986145 18.53543 -18.53543 18.53543l0 0l0 0c-10.236847 0 -18.53543 -8.2986145 -18.53543 -18.53543z" fill-rule="evenodd"/><path fill="#0f172a" d="m356.63452 106.3763l0 0c0 -10.236839 8.2986145 -18.53543 18.53543 -18.53543l0 0l0 0c4.915924 0 9.630463 1.9528351 13.106537 5.4289017c3.4760742 3.4760666 5.428894 8.190628 5.428894 13.106529l0 327.68506c0 10.236847 -8.298584 18.53543 -18.53543 18.53543l0 0l0 0c-10.236816 0 -18.53543 -8.298584 -18.53543 -18.53543z" fill-rule="evenodd"/><path stroke="#0f172a" stroke-width="1.2388451443569553" stroke-linejoin="round" stroke-linecap="butt" d="m356.63452 106.3763l0 0c0 -10.236839 8.2986145 -18.53543 18.53543 -18.53543l0 0l0 0c4.915924 0 9.630463 1.9528351 13.106537 5.4289017c3.4760742 3.4760666 5.428894 8.190628 5.428894 13.106529l0 327.68506c0 10.236847 -8.298584 18.53543 -18.53543 18.53543l0 0l0 0c-10.236816 0 -18.53543 -8.298584 -18.53543 -18.53543z" fill-rule="evenodd"/><path fill="#0f172a" d="m429.27014 205.64195l0 0c0 -10.236847 8.2986145 -18.535446 18.53543 -18.535446l0 0l0 0c4.915924 0 9.630463 1.9528351 13.106537 5.4289093c3.4760742 3.4760742 5.428894 8.190628 5.428894 13.106537l0 129.10237c0 10.236816 -8.298584 18.53543 -18.53543 18.53543l0 0l0 0c-10.236816 0 -18.53543 -8.2986145 -18.53543 -18.53543z" fill-rule="evenodd"/><path stroke="#0f172a" stroke-width="1.2388451443569553" stroke-linejoin="round" stroke-linecap="butt" d="m429.27014 205.64195l0 0c0 -10.236847 8.2986145 -18.535446 18.53543 -18.535446l0 0l0 0c4.915924 0 9.630463 1.9528351 13.106537 5.4289093c3.4760742 3.4760742 5.428894 8.190628 5.428894 13.106537l0 129.10237c0 10.236816 -8.298584 18.53543 -18.53543 18.53543l0 0l0 0c-10.236816 0 -18.53543 -8.2986145 -18.53543 -18.53543z" fill-rule="evenodd"/><path fill="#0f172a" d="m501.90576 151.78862l0 0c0 -10.236847 8.298584 -18.53543 18.535461 -18.53543l0 0l0 0c4.9158936 0 9.630432 1.9528351 13.106506 5.428894c3.4760742 3.4760742 5.428894 8.190628 5.428894 13.106537l0 236.88188c0 10.236847 -8.298584 18.53543 -18.5354 18.53543l0 0l0 0c-10.236877 0 -18.535461 -8.298584 -18.535461 -18.53543z" fill-rule="evenodd"/><path stroke="#0f172a" stroke-width="1.2388451443569553" stroke-linejoin="round" stroke-linecap="butt" d="m501.90576 151.78862l0 0c0 -10.236847 8.298584 -18.53543 18.535461 -18.53543l0 0l0 0c4.9158936 0 9.630432 1.9528351 13.106506 5.428894c3.4760742 3.4760742 5.428894 8.190628 5.428894 13.106537l0 236.88188c0 10.236847 -8.298584 18.53543 -18.5354 18.53543l0 0l0 0c-10.236877 0 -18.535461 -8.298584 -18.535461 -18.53543z" fill-rule="evenodd"/><path fill="#0f172a" d="m574.5414 242.21434l0 0c0 -10.236832 8.298584 -18.53543 18.5354 -18.53543l0 0l0 0c4.9159546 0 9.630493 1.9528351 13.106567 5.4289093c3.4760742 3.476059 5.428894 8.190628 5.428894 13.106522l0 56.063004c0 10.236816 -8.298584 18.53543 -18.535461 18.53543l0 0l0 0c-10.236816 0 -18.5354 -8.2986145 -18.5354 -18.53543z" fill-rule="evenodd"/><path stroke="#0f172a" stroke-width="1.2388451443569553" stroke-linejoin="round" stroke-linecap="butt" d="m574.5414 242.21434l0 0c0 -10.236832 8.298584 -18.53543 18.5354 -18.53543l0 0l0 0c4.9159546 0 9.630493 1.9528351 13.106567 5.4289093c3.4760742 3.476059 5.428894 8.190628 5.428894 13.106522l0 56.063004c0 10.236816 -8.298584 18.53543 -18.535461 18.53543l0 0l0 0c-10.236816 0 -18.5354 -8.2986145 -18.5354 -18.53543z" fill-rule="evenodd"/></g></svg>